<?xml version="1.0" encoding="utf-8"?>
<svg t="1552756048759" class="icon" style="" viewBox="0 -2 32 32" version="1.1" p-id="2032" width="24px" height="24px" xmlns="http://www.w3.org/2000/svg">
  <path d="M 29.072 0 C 22.629 0 17.73 5.008 17.73 11.402 L 17.73 26.747 C 17.73 27.333 18.21 27.813 18.795 27.813 L 30.935 27.813 C 31.521 27.813 32 27.333 32 26.747 L 32 14.599 C 32 14.013 31.521 13.533 30.935 13.533 L 21.99 13.533 L 21.99 11.402 C 21.99 7.832 25.504 4.262 29.072 4.262 L 30.935 4.262 C 31.521 4.262 32 3.783 32 3.197 L 32 1.066 C 32 0.48 31.521 0 30.935 0 L 29.072 0 Z M 11.341 0 C 4.898 0 0 5.008 0 11.402 L 0 26.747 C 0 27.333 0.479 27.813 1.065 27.813 L 13.205 27.813 C 13.79 27.813 14.27 27.333 14.27 26.747 L 14.27 14.599 C 14.27 14.013 13.79 13.533 13.205 13.533 L 4.313 13.533 L 4.313 11.402 C 4.313 7.832 7.827 4.262 11.394 4.262 L 13.258 4.262 C 13.844 4.262 14.323 3.783 14.323 3.197 L 14.323 1.066 C 14.323 0.48 13.844 0 13.258 0 L 11.341 0 Z" p-id="2033"/>
</svg>